<svg xmlns="http://www.w3.org/2000/svg" width="29.937" height="29.643" viewBox="0 0 29.937 29.643">
  <g id="ijahsq_2_" transform="translate(0.011 0.001)">
    <g id="Group_2" data-name="Group 2" transform="translate(-0.011 -0.001)">
      <path id="Path_2" data-name="Path 2" d="M14.965,290.746H.664c-.621,0-.674-.053-.674-.672,0-.964,0-1.927,0-2.891a7.748,7.748,0,0,1,2.8-5.94,11.053,11.053,0,0,1,5.662-2.659,11.664,11.664,0,0,1,2.508-.155.875.875,0,0,1,.48.2,5.957,5.957,0,0,0,3.462,1.134,5.881,5.881,0,0,0,3.557-1.121,1.056,1.056,0,0,1,.631-.213,11.5,11.5,0,0,1,7.64,2.483,8.053,8.053,0,0,1,3.112,5.105,11.768,11.768,0,0,1,.087,1.953c-.006.715,0,1.43,0,2.145,0,.549-.085.633-.626.633Zm-.012-.706H28.725c.487,0,.488,0,.488-.5,0-.8.014-1.6,0-2.394a6.565,6.565,0,0,0-.445-2.339,8.656,8.656,0,0,0-4.455-4.559,11.738,11.738,0,0,0-4.495-1.106,2.151,2.151,0,0,0-1.288.32,6.6,6.6,0,0,1-7.127,0,2.2,2.2,0,0,0-1.441-.307c-.093.01-.185.022-.278.03a10.265,10.265,0,0,0-7.109,3.322,6.7,6.7,0,0,0-1.82,4c-.086.993-.024,1.988-.04,2.982-.009.548,0,.549.532.549Z" transform="translate(0.011 -261.103)" fill="#49341c"/>
      <path id="Path_3" data-name="Path 3" d="M131.542,16.291a6,6,0,0,1-4.3-2.016,10,10,0,0,1-2.783-6.514,8.293,8.293,0,0,1,.461-3.483,6.052,6.052,0,0,1,3.539-3.63,8.219,8.219,0,0,1,6.818.188,6.2,6.2,0,0,1,3.513,4.9,10.068,10.068,0,0,1-1.041,6.211,8.209,8.209,0,0,1-3.314,3.609A5.755,5.755,0,0,1,131.542,16.291Zm6.6-9.106c0-.259.007-.518,0-.777a3.607,3.607,0,0,0-.056-.431A5.612,5.612,0,0,0,135.2,1.638a7.436,7.436,0,0,0-6.37-.344,5.3,5.3,0,0,0-3.25,3.3,7.385,7.385,0,0,0-.4,3.3,9.247,9.247,0,0,0,3.017,6.255,4.94,4.94,0,0,0,4.174,1.344,5.593,5.593,0,0,0,3.273-1.836A9.46,9.46,0,0,0,138.145,7.184Z" transform="translate(-116.694 0.001)" fill="#49341c"/>
    </g>
  </g>
</svg>
