<svg xmlns="http://www.w3.org/2000/svg" width="8.797" height="14.324" viewBox="0 0 8.797 14.324">
	<g id="Bypfn1_2_" opacity="0.8">
		<g id="Group_5" data-name="Group 5" transform="translate(0 0)">
			<path id="Path_5" data-name="Path 5" d="M6.419,7.172c-.022-.023-.033-.036-.045-.047L4.911,5.75.886,1.968C.6,1.7.317,1.433.031,1.167c-.042-.039-.053-.06,0-.105Q.572.552,1.112.035c.035-.033.054-.045.1,0q2.753,2.59,5.509,5.176c.283.266.563.535.849.8.4.364.784.741,1.179,1.108.04.037.048.057,0,.1-.353.33-.7.666-1.055,1-1.6,1.484-3.179,2.985-4.77,4.475q-.861.806-1.718,1.616c-.048.045-.07.04-.113,0Q.558,13.784.018,13.279c-.049-.046-.044-.066,0-.11q3.17-2.975,6.338-5.952A.68.68,0,0,1,6.419,7.172Z" transform="translate(0.016 -0.005)" fill="#49331e" />
		</g>
	</g>
</svg>
