<svg xmlns="http://www.w3.org/2000/svg" width="34.357" height="29.643" viewBox="0 0 34.357 29.643">
  <g id="Exu6GE_2_" transform="translate(0.001 -0.001)">
    <g id="Group_16" data-name="Group 16" transform="translate(-0.001 0.001)">
      <path id="Path_15" data-name="Path 15" d="M20.586,25.121c-3.326,0-6.654-.04-9.98.022A1.72,1.72,0,0,1,8.9,23.2a4.785,4.785,0,0,1,.483-1.51,10.7,10.7,0,0,1,1.358-2.03.583.583,0,0,0,.13-.54Q9.734,13.127,8.608,7.137c-.284-1.506-.571-3.011-.842-4.519-.05-.279-.131-.411-.45-.446-1.818-.2-3.634-.43-5.449-.657a.637.637,0,0,0-.479.116.875.875,0,0,1-1.2-.174A.9.9,0,0,1,.279.245a.874.874,0,0,1,1.21,0,.758.758,0,0,0,.457.2c2.062.245,4.123.505,6.186.739.347.039.5.143.562.51.258,1.51.568,3.012.83,4.521.059.335.174.434.517.433q11.241-.016,22.482-.007a2.437,2.437,0,0,1,.772.068,1.53,1.53,0,0,1,.986,1.962C33.894,9.985,33.5,11.3,33.1,12.611q-1.01,3.373-2.019,6.746c-.224.749-.238.762-1.029.762q-8.923,0-17.844-.008a.848.848,0,0,0-.772.377,10.5,10.5,0,0,0-1.233,1.977,2.63,2.63,0,0,0-.225.743c-.071.592.131.826.715.826H30.729a2.051,2.051,0,0,1,.37.008.536.536,0,0,1-.016,1.068,3.286,3.286,0,0,1-.445.008Q25.613,25.123,20.586,25.121ZM29.454,7.71c-1.1,0-2.2.007-3.3-.005-.239,0-.322.069-.33.309q-.04,1.223-.115,2.445c-.015.243.059.315.3.315q3.116-.011,6.233,0c.235,0,.318-.1.377-.3.189-.665.395-1.326.593-1.989.163-.542-.007-.775-.57-.776Q31.05,7.706,29.454,7.71Zm-16.072,0c-1.088,0-2.176,0-3.264,0-.22,0-.311.032-.257.289q.258,1.233.468,2.477c.039.232.127.3.358.3q3.078-.01,6.157,0c.249,0,.314-.07.292-.318-.07-.8-.128-1.6-.164-2.4-.012-.268-.085-.358-.365-.353C15.534,7.72,14.458,7.71,13.382,7.709Zm8.013,0c-1.025,0-2.051.007-3.076-.005-.233,0-.3.068-.277.3q.1,1.255.17,2.513c.012.222.112.26.3.26q2.909-.006,5.817,0c.223,0,.3-.072.305-.295.028-.814.065-1.629.119-2.442.018-.264-.062-.338-.323-.335C23.421,7.716,22.408,7.709,21.4,7.709ZM13.92,11.848c-1,0-2,.005-3,0-.227,0-.335.023-.278.3.173.833.324,1.671.473,2.51a.272.272,0,0,0,.316.266c1.913-.007,3.825-.013,5.738,0,.251,0,.274-.08.256-.3-.068-.812-.129-1.625-.161-2.439-.011-.292-.125-.34-.381-.336C15.9,11.855,14.908,11.848,13.92,11.848Zm14.986,0c-.951,0-1.9.013-2.854-.007-.312-.007-.427.061-.43.4-.007.778-.047,1.556-.111,2.331-.024.3.073.344.336.343q2.575-.014,5.151,0a.332.332,0,0,0,.381-.292c.232-.819.473-1.636.733-2.447.085-.266.041-.337-.243-.333C30.882,11.857,29.894,11.848,28.906,11.848Zm-7.442,0c-.951,0-1.9,0-2.852,0-.2,0-.313.019-.289.281.076.823.131,1.649.175,2.474.013.235.082.319.324.318q2.665-.017,5.33-.006c.239,0,.291-.087.3-.3.027-.827.058-1.654.108-2.479.014-.235-.05-.3-.28-.292C23.341,11.855,22.4,11.848,21.464,11.848Zm-7,4.139c-.926,0-1.852,0-2.778,0-.238,0-.329.059-.275.317.169.81.331,1.622.471,2.439.042.246.131.321.379.32q2.559-.016,5.119,0c.293,0,.351-.094.329-.364-.066-.8-.115-1.6-.154-2.405-.012-.25-.128-.309-.35-.307C16.294,15.99,15.382,15.986,14.468,15.987Zm7.017,0c-.862,0-1.726.005-2.588,0-.216,0-.309.041-.287.287.074.836.133,1.674.182,2.511.012.207.081.272.286.271q2.445-.01,4.889,0c.208,0,.276-.067.284-.274.03-.813.063-1.628.125-2.439.024-.319-.1-.364-.377-.358C23.162,16,22.323,15.991,21.485,15.991Zm6.7,0c-.8,0-1.605.016-2.408-.009-.281-.009-.337.106-.346.335-.031.814-.061,1.628-.1,2.442-.013.227.06.3.288.3q2.074-.013,4.149,0a.333.333,0,0,0,.382-.292q.354-1.246.74-2.483c.073-.235.03-.3-.219-.3C29.84,16,29.012,15.993,28.185,15.993Z" transform="translate(0.001 -0.001)" fill="#49341c"/>
      <path id="Path_16" data-name="Path 16" d="M146.161,352.147a1.821,1.821,0,1,1-1.791-1.839A1.819,1.819,0,0,1,146.161,352.147Z" transform="translate(-131.943 -324.309)" fill="#49341c"/>
      <path id="Path_17" data-name="Path 17" d="M354.376,352.091a1.823,1.823,0,0,1-1.8,1.836,1.824,1.824,0,1,1-.019-3.647A1.811,1.811,0,0,1,354.376,352.091Z" transform="translate(-324.7 -324.284)" fill="#49341c"/>
    </g>
  </g>
</svg>
