<svg id="ImqEjl.tif_1_" xmlns="http://www.w3.org/2000/svg" width="50.381" height="50.378" viewBox="0 0 50.381 50.378">
	<g id="Group_12" data-name="Group 12" transform="translate(0 0)">
		<path id="Path_9" data-name="Path 9" d="M25.169,0A25.189,25.189,0,1,1,0,25.181,25.174,25.174,0,0,1,25.169,0Zm-4.15,32.847c0,2.378.019,4.758-.015,7.135-.008.567.169.685.7.675,1.7-.034,3.4-.043,5.1,0,.6.017.7-.182.7-.728-.02-4.738,0-9.475-.025-14.214,0-.534.156-.662.662-.644,1.094.037,2.19,0,3.285.018.321,0,.454-.062.485-.422.125-1.466.293-2.928.443-4.392.07-.684.068-.685-.635-.685H27.975c-.249,0-.5.034-.491-.354.016-1-.023-2,.02-3a1.274,1.274,0,0,1,1.451-1.366c.981-.009,1.964-.01,2.945,0,.291,0,.447-.041.444-.392q-.024-2.293,0-4.587c0-.318-.136-.37-.408-.369-1.7.011-3.4-.05-5.095.028a5.758,5.758,0,0,0-5.75,5.517c-.141,1.356-.052,2.716-.066,4.074,0,.345-.1.465-.451.454-.736-.022-1.472,0-2.208-.01-.31-.006-.43.087-.428.418q.022,2.349,0,4.7c0,.3.1.392.39.385.679-.017,1.361.025,2.038-.015.5-.03.671.1.664.636C21,28.089,21.019,30.468,21.019,32.846Z" transform="translate(0 0.001)" fill="#49341c" />
	</g>
</svg>
