<svg id="XgXuJE.tif_1_" xmlns="http://www.w3.org/2000/svg" width="50.384" height="50.378" viewBox="0 0 50.384 50.378">
	<g id="Group_14" data-name="Group 14" transform="translate(0 0)">
		<path id="Path_11" data-name="Path 11" d="M25.427,50.376A25.189,25.189,0,1,1,50.382,24.955,25.241,25.241,0,0,1,25.427,50.376ZM11.2,25.087c0,1.884-.015,3.769,0,5.653a8.21,8.21,0,0,0,8.416,8.439q5.568.045,11.137,0a8.2,8.2,0,0,0,8.425-8.428c.028-3.731.006-7.462.006-11.193a7.7,7.7,0,0,0-.679-3.375,8.138,8.138,0,0,0-7.768-4.98c-3.694-.027-7.388-.01-11.081,0a9.113,9.113,0,0,0-1.5.108A8.209,8.209,0,0,0,11.2,19.49C11.175,21.355,11.2,23.221,11.2,25.087Z" transform="translate(0.001 0.001)" fill="#49341c" />
		<path id="Path_12" data-name="Path 12" d="M171.851,165.19a6.657,6.657,0,1,1-6.662,6.625A6.6,6.6,0,0,1,171.851,165.19Z" transform="translate(-146.654 -146.655)" fill="#49341c" />
		<path id="Path_13" data-name="Path 13" d="M279.7,147.907a1.45,1.45,0,1,1,1.445-1.471A1.441,1.441,0,0,1,279.7,147.907Z" transform="translate(-247.02 -128.736)" fill="#49341c" />
	</g>
</svg>
