<svg id="wuhmM1.tif_1_" xmlns="http://www.w3.org/2000/svg" width="50.38" height="50.378" viewBox="0 0 50.38 50.378">
	<g id="Group_15" data-name="Group 15" transform="translate(0 0)">
		<path id="Path_14" data-name="Path 14" d="M0,25.192A25.19,25.19,0,1,1,25.2,50.378,25.17,25.17,0,0,1,0,25.192Zm27.626-2.927c0-.731-.019-1.332.008-1.929.015-.339-.093-.437-.431-.434q-2.417.025-4.834,0c-.368,0-.454.117-.453.469q.013,8.076-.007,16.152c0,.42.09.564.539.556q2.306-.045,4.614,0c.456.009.578-.115.575-.572-.021-3.04,0-6.08-.015-9.119a3.359,3.359,0,0,1,.854-2.366,2.952,2.952,0,0,1,2.987-.934,2.543,2.543,0,0,1,1.95,2.013,7.427,7.427,0,0,1,.222,2.069c0,2.783.009,5.567-.008,8.35,0,.417.095.567.542.558,1.519-.029,3.04-.032,4.559,0,.487.011.615-.126.611-.608-.022-3.021-.009-6.043-.013-9.065a12.653,12.653,0,0,0-.161-2.244c-.433-2.39-1.5-4.32-3.9-5.232C32.373,18.833,29.776,19.611,27.626,22.265ZM18.758,28.45c0-2.674-.008-5.348.009-8.022,0-.4-.09-.536-.513-.529q-2.335.038-4.67,0c-.406-.006-.528.1-.528.519q.02,8.05,0,16.1c0,.417.1.568.545.56q2.306-.043,4.615,0c.435.008.553-.12.551-.551C18.749,33.835,18.758,31.143,18.758,28.45Zm-2.869-10.9a3.036,3.036,0,0,0,3.146-2.142A2.929,2.929,0,0,0,17.084,11.8a3.288,3.288,0,0,0-4.191,1.8A2.96,2.96,0,0,0,15.889,17.552Z" transform="translate(0 0)" fill="#49341c" />
	</g>
</svg>
