<svg id="Bypfn1_2_" xmlns="http://www.w3.org/2000/svg" width="17.599" height="28.657" viewBox="0 0 17.599 28.657">
	<g id="Group_5" data-name="Group 5" transform="translate(0 0)">
		<path id="Path_5" data-name="Path 5" d="M4.708,14.343c.044-.046.065-.072.089-.095L7.724,11.5l8.053-7.566c.57-.535,1.138-1.072,1.711-1.6.084-.078.106-.119.009-.21Q16.4,1.1,15.325.066c-.07-.067-.108-.09-.195-.008Q9.623,5.238,4.109,10.413c-.566.532-1.126,1.071-1.7,1.594-.8.728-1.569,1.482-2.359,2.217-.08.075-.1.113,0,.2.707.66,1.4,1.333,2.111,1.991,3.2,2.969,6.36,5.971,9.544,8.952q1.722,1.612,3.437,3.234c.1.09.14.079.227,0q1.069-1.023,2.15-2.035c.1-.092.088-.132,0-.219Q11.167,20.39,4.83,14.433A1.36,1.36,0,0,0,4.708,14.343Z" transform="translate(0.016 -0.005)" fill="#604e39" />
	</g>
</svg>
