<svg id="Bypfn1_2_" xmlns="http://www.w3.org/2000/svg" width="37.86" height="61.65" viewBox="0 0 37.86 61.65">
	<g id="Group_5" data-name="Group 5" transform="translate(0 0)">
		<path id="Path_5" data-name="Path 5" d="M27.68,30.849c-.094-.1-.141-.155-.192-.2l-6.3-5.915L3.869,8.455C2.643,7.3,1.42,6.149.188,5.006.006,4.837-.04,4.749.169,4.554Q2.517,2.357,4.841.135c.15-.143.232-.193.419-.018Q17.107,11.263,28.969,22.4c1.218,1.144,2.422,2.3,3.656,3.429C34.339,27.391,36,29.013,37.7,30.594c.173.161.207.243.011.427-1.52,1.421-3.016,2.867-4.54,4.283C26.3,41.69,19.489,48.15,12.639,54.563q-3.705,3.469-7.393,6.956c-.206.194-.3.17-.488-.009q-2.3-2.2-4.625-4.377c-.212-.2-.189-.285.009-.472q13.643-12.8,27.277-25.618A2.927,2.927,0,0,1,27.68,30.849Z" transform="translate(0.016 -0.005)" fill="#9b795b" />
	</g>
</svg>
