<svg xmlns="http://www.w3.org/2000/svg" width="93.308" height="93.308" viewBox="0 0 93.308 93.308">
	<circle id="Ellipse_12" data-name="Ellipse 12" cx="46.654" cy="46.654" r="46.654" fill="#c9b89b" opacity="0.172" />
	<g id="Bypfn1_2_" transform="translate(33.761 21)">
		<g id="Group_5" data-name="Group 5" transform="translate(0 0)">
			<path id="Path_5" data-name="Path 5" d="M23.125,25.777c-.079-.083-.118-.13-.161-.17L17.7,20.665,3.23,7.065C2.206,6.1,1.184,5.139.154,4.183,0,4.043-.036,3.969.138,3.806Q2.1,1.97,4.042.114c.125-.12.194-.161.35-.015q9.9,9.313,19.81,18.615c1.017.956,2.024,1.924,3.055,2.865,1.433,1.308,2.821,2.664,4.241,3.985.144.134.173.2.009.357-1.27,1.187-2.52,2.4-3.794,3.579-5.744,5.336-11.431,10.733-17.155,16.092q-3.1,2.9-6.178,5.812c-.172.162-.251.142-.408-.008Q2.05,49.557.108,47.739c-.177-.165-.158-.238.008-.394q11.4-10.7,22.791-21.405A2.445,2.445,0,0,1,23.125,25.777Z" transform="translate(0.016 -0.005)" fill="#604e39" />
		</g>
	</g>
</svg>
