<svg xmlns="http://www.w3.org/2000/svg" width="93.308" height="93.308" viewBox="0 0 93.308 93.308">
	<circle id="Ellipse_13" data-name="Ellipse 13" cx="46.654" cy="46.654" r="46.654" fill="#c9b89b" opacity="0.167" />
	<g id="Bypfn1_2_" transform="translate(30.913 21)">
		<g id="Group_5" data-name="Group 5" transform="translate(-4 0)">
			<path id="Path_5" data-name="Path 5" d="M8.476,25.746c.079.083.118.13.161.17l5.26,4.942,14.475,13.6c1.024.962,2.045,1.926,3.076,2.882.152.141.19.214.016.378q-1.962,1.835-3.9,3.692c-.125.12-.194.161-.35.015Q17.31,42.111,7.4,32.809c-1.017-.956-2.024-1.924-3.055-2.865C2.912,28.635,1.524,27.28.1,25.959c-.144-.134-.173-.2-.009-.357,1.27-1.187,2.52-2.4,3.794-3.579C9.633,16.687,15.32,11.29,21.044,5.931q3.1-2.9,6.178-5.812c.172-.162.251-.142.408.008q1.922,1.839,3.864,3.657c.177.165.158.238-.008.394q-11.4,10.7-22.791,21.405A2.444,2.444,0,0,1,8.476,25.746Z" transform="translate(0.016 -0.005)" fill="#604e39" />
		</g>
	</g>
</svg>
