<svg xmlns="http://www.w3.org/2000/svg" width="26.679" height="29.643" viewBox="0 0 26.679 29.643">
  <g id="LT17S9.tif_1_" transform="translate(0 0.01)">
    <g id="Group_1" data-name="Group 1" transform="translate(0 -0.01)">
      <path id="Path_1" data-name="Path 1" d="M12.3-.01c.4.045.811.07,1.21.139a11.577,11.577,0,0,1,8.355,5.757,10.9,10.9,0,0,1,1.474,4.506,11.577,11.577,0,0,1-2.856,9.05,1.054,1.054,0,0,0-.083.1c-.083.125-.291.2-.263.351.023.125.181.224.277.336q2.665,3.092,5.328,6.188a3.856,3.856,0,0,1,.923,1.989,1.476,1.476,0,0,1-.074.711.792.792,0,0,1-.89.506,2.743,2.743,0,0,1-1.641-1Q21.321,25.467,18.6,22.3a2.886,2.886,0,0,1-.4-.576c-.084-.167-.154-.187-.316-.083a11.092,11.092,0,0,1-2.7,1.242,11.73,11.73,0,0,1-2.814.506,11.282,11.282,0,0,1-6.543-1.566A11.532,11.532,0,0,1,.168,13.7C.082,13.248.056,12.787,0,12.328v-1.26a1.029,1.029,0,0,0,.024-.145A8.743,8.743,0,0,1,.193,9.547,11.58,11.58,0,0,1,4.911,2.165,11.344,11.344,0,0,1,9.958.119c.384-.058.771-.08,1.156-.129ZM11.71,2.06a8.754,8.754,0,0,0-1.408.1A9.66,9.66,0,0,0,4.48,5.167a9.245,9.245,0,0,0-2.5,7.921,9.2,9.2,0,0,0,3.48,6.046,9.724,9.724,0,0,0,7.5,2.116A9.42,9.42,0,0,0,18.346,18.8a9.327,9.327,0,0,0,3.134-8.125,8.747,8.747,0,0,0-1.406-4.034A9.8,9.8,0,0,0,11.71,2.06Z" transform="translate(0 0.01)" fill="#49331e"/>
    </g>
  </g>
</svg>
