<svg id="VpLTrP.tif_1_" xmlns="http://www.w3.org/2000/svg" width="50.377" height="50.378" viewBox="0 0 50.377 50.378">
	<g id="Group_13" data-name="Group 13" transform="translate(0 0)">
		<path id="Path_10" data-name="Path 10" d="M25.174,0A25.189,25.189,0,1,1,0,25.229,25.167,25.167,0,0,1,25.174,0Zm-14.9,36.164a1.741,1.741,0,0,0,.154.177c.077.055.156.108.237.154A17.989,17.989,0,0,0,37.88,20.718a1.075,1.075,0,0,1,.474-.985A11.415,11.415,0,0,0,41,16.858a12.922,12.922,0,0,1-3.5.919,6.581,6.581,0,0,0,2.633-3.344.981.981,0,0,0-.55.212,13.974,13.974,0,0,1-2.961,1.105.736.736,0,0,1-.763-.186,6.3,6.3,0,0,0-7.048-1.112,6.4,6.4,0,0,0-3.637,6.157c.011.328.334.771-.024.964-.267.144-.7,0-1.055-.043a17.875,17.875,0,0,1-11.509-6.15c-.308-.353-.409-.283-.591.1a6.384,6.384,0,0,0,1.592,7.531c.15.129.365.2.427.457a6.945,6.945,0,0,1-2.662-.739A6.163,6.163,0,0,0,12.712,26.7a6.56,6.56,0,0,0,3.631,2.292,7.54,7.54,0,0,1-2.748.157A6.274,6.274,0,0,0,15.8,32.236a6.7,6.7,0,0,0,3.674,1.3A12.941,12.941,0,0,1,10.273,36.164Z" transform="translate(0.002 0)" fill="#49341c" />
	</g>
</svg>
