<svg id="Group_24" data-name="Group 24" xmlns="http://www.w3.org/2000/svg" width="29.639" height="29.643" viewBox="0 0 29.639 29.643">
  <path id="Path_19" data-name="Path 19" d="M14.831,29.638A14.822,14.822,0,1,1,29.638,14.788,14.826,14.826,0,0,1,14.831,29.638Zm-1.348-1.391c-.04-.058-.076-.118-.118-.175a16.9,16.9,0,0,1-1.166-1.8,21.47,21.47,0,0,1-2.287-6.293c-.035-.174-.089-.219-.266-.18a23.415,23.415,0,0,0-3.245.955c-.169.064-.2.126-.121.292a14.432,14.432,0,0,0,5.147,6.13A9.567,9.567,0,0,0,13.483,28.247Zm2.691.024a.732.732,0,0,0,.332-.111,14.213,14.213,0,0,0,6.8-6.91c.1-.2.089-.286-.137-.374a22.563,22.563,0,0,0-3.021-.951c-.376-.088-.333-.151-.421.262a21.248,21.248,0,0,1-2.521,6.555C16.9,27.261,16.553,27.755,16.174,28.271ZM13.483,1.389l-.035-.031c-.043.017-.086.032-.128.051A14.156,14.156,0,0,0,6.363,8.415c-.072.152-.029.2.114.254a23.5,23.5,0,0,0,3.176.93c.2.044.269.01.315-.2a20.369,20.369,0,0,1,3.119-7.446C13.218,1.761,13.352,1.576,13.483,1.389Zm2.73-.019c0,.084.059.128.1.181A17.268,17.268,0,0,1,17.828,4,21.622,21.622,0,0,1,19.7,9.336c.035.161.074.228.261.183a23.218,23.218,0,0,0,3.181-.994c.139-.055.181-.1.107-.256A14.17,14.17,0,0,0,16.434,1.44C16.366,1.408,16.3,1.351,16.213,1.37Zm6.276,12.948h0c.667,0,1.335,0,2,0,.134,0,.219-.007.211-.189a15.558,15.558,0,0,0-.948-4.674c-.052-.142-.112-.154-.246-.1a22.17,22.17,0,0,1-3.4,1.013c-.144.031-.2.07-.171.232a23.175,23.175,0,0,1,.327,3.508c0,.163.051.219.219.217C21.154,14.313,21.822,14.318,22.489,14.318ZM15.318,27.632a.175.175,0,0,0,.136-.1,18.638,18.638,0,0,0,3.469-7.688c.035-.159-.041-.188-.168-.21A27.809,27.809,0,0,0,15.6,19.3c-.231-.012-.292.048-.291.281.009,2.5.005,4.992.005,7.488C15.318,27.254,15.318,27.435,15.318,27.632Zm-1.009-.006c.006-.14.012-.21.012-.28q0-1.706,0-3.411,0-2.207,0-4.413c0-.144,0-.234-.2-.229a26.717,26.717,0,0,0-3.206.274c-.166.024-.2.077-.164.243A19.721,19.721,0,0,0,13.22,26.1,12.985,12.985,0,0,0,14.309,27.626ZM7.2,14.318c.659,0,1.317,0,1.976,0,.166,0,.238-.032.24-.22a22.719,22.719,0,0,1,.307-3.389c.029-.176-.013-.23-.184-.263a21.655,21.655,0,0,1-3.413-.955c-.15-.056-.205-.022-.257.124a15.642,15.642,0,0,0-.885,4.469c-.01.2.058.237.238.235C5.881,14.312,6.54,14.317,7.2,14.318Zm15.31,1v-.008c-.667,0-1.334,0-2,0-.1,0-.238-.04-.24.166a22.44,22.44,0,0,1-.288,3.32c-.023.148.013.205.167.239a21.937,21.937,0,0,1,3.439,1.036c.129.051.192.047.244-.1a15.586,15.586,0,0,0,.87-4.45c.009-.179-.057-.209-.214-.208C23.828,15.322,23.168,15.318,22.509,15.318ZM15.342,1.957a1.554,1.554,0,0,0-.024.164q0,3.887,0,7.774c0,.183.073.205.226.2a27.835,27.835,0,0,0,3.153-.322c.195-.032.2-.11.167-.269A20.842,20.842,0,0,0,17.35,5.142,16.215,16.215,0,0,0,15.342,1.957Zm-1.056.107c-.1.046-.144.145-.2.223a18.686,18.686,0,0,0-3.287,7.34c-.051.226.1.194.208.209a26.541,26.541,0,0,0,3.063.264c.224.007.257-.07.257-.268q-.008-3.781,0-7.562C14.32,2.2,14.348,2.128,14.286,2.064Zm-7.1,13.248v.005c-.667,0-1.335,0-2,0-.156,0-.213.039-.2.2.042.411.057.825.107,1.234A15.012,15.012,0,0,0,5.8,19.807c.041.119.07.189.228.13a22.37,22.37,0,0,1,3.526-.993c.129-.025.167-.073.146-.207a22.018,22.018,0,0,1-.279-3.178c0-.2-.074-.254-.261-.252C8.5,15.317,7.84,15.312,7.182,15.312Zm19.967-1c.406,0,.811-.008,1.216,0,.186.005.25-.045.232-.241-.046-.523-.091-1.045-.178-1.563a13.735,13.735,0,0,0-1.631-4.554c-.061-.107-.1-.177-.25-.086a15.428,15.428,0,0,1-1.746.929c-.126.057-.136.12-.091.238a16.213,16.213,0,0,1,1.027,5.071c.008.172.068.21.226.207C26.355,14.309,26.752,14.316,27.15,14.316Zm-24.666,0v0c.429,0,.858,0,1.286,0,.131,0,.178-.038.183-.174a16.283,16.283,0,0,1,.962-4.935c.043-.118.04-.184-.089-.24A17.009,17.009,0,0,1,3,8.045c-.114-.066-.171-.06-.239.063a13.906,13.906,0,0,0-1.724,6.015c-.008.146.036.2.183.2C1.642,14.311,2.063,14.315,2.484,14.315Zm26.09,1.492c.005-.063.011-.126.016-.19.021-.3.021-.3-.281-.3-.771,0-1.542.006-2.313,0-.186,0-.261.033-.27.239a15.973,15.973,0,0,1-.937,4.8c-.063.173-.014.231.136.3a13.938,13.938,0,0,1,1.656.894c.17.108.237.088.334-.09A13.776,13.776,0,0,0,28.574,15.808ZM2.5,15.317h0c-.413,0-.826.007-1.239,0-.174,0-.234.039-.223.227a13.951,13.951,0,0,0,1.6,5.76c.087.165.151.176.3.085a15.056,15.056,0,0,1,1.8-.923c.14-.061.148-.124.1-.251A16.016,16.016,0,0,1,3.956,15.5c-.007-.168-.074-.191-.216-.189C3.326,15.322,2.913,15.317,2.5,15.317Zm14.862-1h1.884c.112,0,.2,0,.193-.161a25.729,25.729,0,0,0-.338-3.439c-.018-.1-.053-.149-.172-.128a25.11,25.11,0,0,1-3.439.341c-.162.005-.173.086-.173.211,0,.986.006,1.972,0,2.958,0,.19.07.222.237.22C16.154,14.313,16.758,14.318,17.362,14.318Zm-5.087,0c.612,0,1.224,0,1.837,0,.123,0,.212,0,.21-.17q-.009-1.515,0-3.029c0-.135-.047-.177-.179-.179a24.705,24.705,0,0,1-3.325-.273c-.176-.027-.23.023-.259.2a28.008,28.008,0,0,0-.314,3.226c-.01.206.068.234.243.232C11.083,14.313,11.679,14.318,12.275,14.318Zm5.1,1v0c-.6,0-1.2.01-1.807-.006-.2-.006-.261.052-.259.247.009.882.013,1.764.006,2.645,0,.19.044.259.247.265a23.175,23.175,0,0,1,3.387.34c.172.031.183-.064.2-.178a27.758,27.758,0,0,0,.292-3.106c.008-.174-.051-.214-.212-.212C18.61,15.32,17.992,15.316,17.374,15.316Zm-5.077,0v.005c-.618,0-1.236,0-1.855,0-.152,0-.206.04-.2.2a28.408,28.408,0,0,0,.281,3.057c.022.148.079.18.218.158a26.148,26.148,0,0,1,3.415-.284c.127,0,.163-.052.163-.17q0-1.405,0-2.81c0-.125-.045-.163-.169-.162C13.532,15.317,12.915,15.313,12.3,15.313ZM10.585,27.941c-.018-.033-.02-.042-.025-.047l-.361-.272a15.483,15.483,0,0,1-4.863-6.159c-.073-.164-.127-.212-.306-.122-.532.269-1.054.554-1.572.847-.2.112-.178.193-.066.356A13.848,13.848,0,0,0,9,27.326,10.925,10.925,0,0,0,10.585,27.941ZM10.6,1.719a.324.324,0,0,0-.083-.009c-.188.064-.377.125-.563.2A13.844,13.844,0,0,0,3.475,6.964c-.1.139-.084.2.063.288q.774.447,1.577.841c.172.084.232.05.31-.12A15.61,15.61,0,0,1,8.369,3.633,15.814,15.814,0,0,1,10.6,1.719Zm8.578,26.153a3.076,3.076,0,0,0,.7-.221,13.84,13.84,0,0,0,6.257-4.935c.124-.174.112-.25-.07-.359-.476-.288-.961-.56-1.451-.824-.178-.1-.254-.09-.346.113A15.459,15.459,0,0,1,20.486,26.8C20.067,27.176,19.622,27.521,19.179,27.872Zm-.01-26.1c.207.158.417.312.621.475a15.409,15.409,0,0,1,4.393,5.565c.082.175.153.191.316.1q.739-.389,1.456-.815c.173-.1.186-.173.066-.338a13.848,13.848,0,0,0-5.488-4.5A6.71,6.71,0,0,0,19.169,1.775Z" transform="translate(0.001 0.005)" fill="#49341c"/>
</svg>
